<?xml version="1.0" encoding="utf-8"?>
<svg version="1.1" id="icon_x5F_gpu_x5F_main2" xmlns="http://www.w3.org/2000/svg" xmlns:xlink="http://www.w3.org/1999/xlink"
	 x="0px" y="0px" viewBox="0 0 128 128" style="enable-background:new 0 0 128 128;" xml:space="preserve">
<path id="icon_x5F_gpu_x5F_2_x5F_down" class="st0" d="M62.29,94.06c0,0,3.21,3.22,6.42,0s25.68-25.77,25.68-25.77s3.21-3.22,0-6.44
	c-3.21-3.22-25.68-25.77-25.68-25.77s-3.21-3.22-6.42,0c-3.21,3.22-25.68,25.77-25.68,25.77s-3.21,3.22,0,6.44
	C39.82,71.51,62.29,94.06,62.29,94.06z"/>
<path id="icon_x5F_gpu_x5F_2_x5F_up" class="st0" d="M124.55,75.52c-0.44-0.99-5.64-3.37-8.14-1.34l-4.91-4.93
	c1.52-2.78,1.97-6.74-1.35-10.27l0.01-0.01c0,0-0.22-0.22-0.23-0.23l0,0l-1.3-1.3l4.99-5.01c7.15,4.04,13.68-6.5,8.1-11.21
	c-4.77-5.64-15.22,1.07-11.19,8.13l-4.98,5L93.88,42.64l4.94-4.96c0.93,0.46,2.04,0.75,3.33,0.81c8.92-0.48,9.37-13.8-0.25-14.23
	c-5.88,0.31-8.08,6.21-6.14,10.31l-4.96,4.97l-8.27-8.3l11.22-11.26l-8.18-8.21c4.03-7.07-6.42-13.77-11.19-8.13
	c-4.28,3.12-1.33,12.36,4.82,12.07c1.3,0,2.41-0.41,3.27-0.87l5.12,5.14l-8.15,8.17l-7.88-7.91l-0.01,0.01
	c-7.61-7.48-15.21,3.16-20.5,8.36l-8.28-8.31l5.08-5.1c7.24,3.18,13.83-4.9,8.14-11.24c-6.18-5.77-14.65,1.27-11.22,8.16l-8.15,8.18
	L48,31.71l-2.06,2.07l-11.3-11.34l-8.16,8.19c-2.49-2.04-7.71,0.35-8.14,1.34c-6.68,6.34,3.65,16.56,9.9,9.91h0
	c1.67-1.68,3.09-4.99,1.32-8.16l5.08-5.09l8.22,8.25l-20.7,20.78l-5.09-5.11c3.43-6.89-5.04-13.93-11.22-8.16
	c-5.69,6.35,0.9,14.42,8.14,11.25l5.41,5.43c-1.83,3.03-1.4,7.99,2.5,11.18l-5.13,5.15c-7.15-4.04-13.68,6.5-8.1,11.21
	c4.77,5.64,15.22-1.07,11.19-8.13l5.1-5.12l11.68,11.71l-5.13,5.15c-7.14-4.06-13.67,6.51-8.09,11.2
	c4.77,5.64,15.22-1.06,11.19-8.13l5.11-5.13l0.74,0.73l0,0l6.45,6.47l-11.36,11.41l8.18,8.21c-4.03,7.07,6.42,13.77,11.19,8.13
	c5.58-4.7-0.95-15.26-8.09-11.2l-5.12-5.14l8.29-8.32l9.21,9.23l-0.01,0.01c7.71,8.05,15.83-3.38,21.14-8.55l8.37,8.4l-5.08,5.1
	c-10.8-4.63-14.46,12.6-3.32,13.4c6.01-0.81,8.55-4.98,6.4-10.32l8.15-8.18L83.4,98.01l2.06-2.07l11.38,11.42l8.16-8.19
	c7.24,3.18,13.83-4.9,8.14-11.24c-6.18-5.77-14.65,1.27-11.22,8.16l-5.08,5.09l-8.31-8.34l20.16-20.23l4.63,4.65
	c-1.76,3.17-0.35,6.48,1.32,8.16v0C120.91,92.09,131.22,81.85,124.55,75.52z M114.92,44.3c2.62-2.53,6.23,1.17,3.72,3.76
	C116.03,50.59,112.41,46.89,114.92,44.3z M100.17,29.5c2.63-2.53,6.23,1.16,3.72,3.76C101.18,35.73,97.7,32.2,100.17,29.5z
	 M77.47,10.48c-2.66-2.86,1.48-6.18,3.72-3.76C83.66,9.43,80.18,12.95,77.47,10.48z M49.18,7.06c2.51-2.82,6.3,1.79,3.74,3.74
	C50.64,13.48,46.56,9.28,49.18,7.06z M25.15,38.8c-2.28,2.68-6.36-1.52-3.74-3.74C23.93,32.24,27.71,36.85,25.15,38.8z M8.95,51.23
	c-2.57-1.92,1.16-6.57,3.7-3.77C15.31,49.7,11.2,53.87,8.95,51.23z M15.48,85.51c-2.51,2.43-6.25-0.9-3.72-3.76
	c1.18-1.31,2.78-0.98,3.72,0v0C15.91,82.19,17.21,83.77,15.48,85.51z M30.23,100.31c-2.62,2.53-6.23-1.16-3.72-3.76
	C28.76,94.12,32.88,97.49,30.23,100.31z M51.83,118.24c2.53,2.62-1.13,6.27-3.72,3.76C45.64,119.29,49.12,115.77,51.83,118.24z
	 M82.3,122.75c-2.27,2.7-6.4-1.47-3.74-3.74C80.85,116.33,84.93,120.53,82.3,122.75z M106.34,91.01c2.41-2.69,6.33,1.71,3.71,3.76
	C107.69,97.45,103.7,93.1,106.34,91.01z M106.84,68.31c0,0-38.13,38.26-38.13,38.26c-2.43,2.44-4.74,1.44-6.27,0.15L37.53,81.75
	l0.01-0.01L24.15,68.31c-2.95-2.97-0.74-5.73,0-6.49l38.12-38.26c2.33-2.33,4.52-1.44,5.72-0.59l-0.08,0.08l37.52,37.6l0.12-0.12
	C109.19,63.27,108.67,66.74,106.84,68.31z M121.46,82.36c-2.7,2.47-6.19-1.05-3.72-3.76C120.37,76.06,123.97,79.76,121.46,82.36z"/>
</svg>
