<?xml version="1.0" encoding="utf-8"?>
<svg version="1.1" id="icon_x5F_gpu4_x5F_main" xmlns="http://www.w3.org/2000/svg" xmlns:xlink="http://www.w3.org/1999/xlink"
	 x="0px" y="0px" viewBox="0 0 128 128" style="enable-background:new 0 0 128 128;" xml:space="preserve">
<path id="icomn_x5F_gpu4_x5F_up" class="st0" d="M120.91,84.97l5.6-5.6l-8.73-8.73c0.62-0.87,1.33-2.07,1.83-3.56
	c1.14-3.39,0.58-6.74-1.43-9.69l8.6-8.6l-5.6-5.6l-8.38,8.38l-4.7-4.7l8.39-8.39l-5.6-5.6l-8.39,8.39l-4.7-4.69l8.39-8.39l-5.6-5.6
	l-8.39,8.39l-4.7-4.7l8.4-8.4l-5.6-5.6l-8.4,8.4l-4.7-4.7l8.4-8.4l-5.6-5.6l-8.42,8.42c-3.18-3-9.35-5.27-15-1l-8.55-8.55l-5.6,5.6
	l8.41,8.41l-4.7,4.7l-8.42-8.42l-5.6,5.6l8.42,8.42l-4.69,4.7l-8.43-8.43l-5.6,5.6l8.43,8.43l-4.7,4.7l-8.44-8.44l-5.6,5.6
	l8.44,8.44l-4.7,4.7L6.8,42.06l-5.6,5.6l8.47,8.47c-3.26,3.89-5.04,10.29,0.29,15.89l-8.41,8.41l5.6,5.6l8.38-8.38l4.7,4.7
	l-8.39,8.39l5.6,5.6l8.39-8.39l4.7,4.7l-8.39,8.39l5.6,5.6l8.39-8.39l4.7,4.69l-8.39,8.39l5.6,5.6l8.4-8.4l4.7,4.7l-8.4,8.4l5.6,5.6
	l8.63-8.63c3.62,2.34,9.13,3.35,14.09-1.07l8.64,8.64l5.6-5.6l-8.58-8.58l4.7-4.7l8.58,8.58l5.6-5.6l-8.58-8.58l4.7-4.7l8.58,8.58
	l5.6-5.6l-8.59-8.59l4.69-4.7l8.59,8.59l5.6-5.6l-8.59-8.59l4.7-4.7L120.91,84.97z M60.54,111.41L15.8,66.7
	c-0.75-1.01-2.52-2.53-0.11-5.44l44.95-45.01c2.25-2.25,4.31-1.23,5.59-0.01l44.75,44.7c2.24,2.24,1.22,4.28-0.04,5.61l-44.8,44.84
	C63.88,113.65,61.83,112.63,60.54,111.41z"/>
<path id="icomn_x5F_gpu4_x5F_down" class="st0" d="M93.72,60.54c-3.37-3.37-26.92-26.92-26.92-26.92s-3.37-3.37-6.73,0
	S33.18,60.5,33.18,60.5s-3.36,3.36,0,6.73c3.37,3.37,26.92,26.92,26.92,26.92s3.37,3.37,6.73,0c3.36-3.36,26.89-26.89,26.89-26.89
	S97.08,63.9,93.72,60.54z"/>
</svg>
