<?xml version="1.0" encoding="utf-8"?>
<svg version="1.1" id="icon_x5F_clean" xmlns="http://www.w3.org/2000/svg" xmlns:xlink="http://www.w3.org/1999/xlink" x="0px"
	 y="0px" viewBox="0 0 128 128" style="enable-background:new 0 0 128 128;" xml:space="preserve">
<path id="_x33_" class="st0" d="M84.24,56.46v-43.7c0-4.79-3.17-11.92-11.92-11.92S60.4,7.97,60.4,12.76v43.7H25.25V80.3h7.7
	c-2.4,20.58-22.22,40.68-22.43,40.9l-6.77,6.78h26.95c5.37,0,13.84-4.19,18.38-14.69c0,7.08,0,14.69,0,14.69h27.45
	c3.97,0,7.73-1.76,10.28-4.8l2.99-3.57l-1,8.37h6.08c9.81,0,17.76-7.95,17.76-17.76V80.3l7.34,0V56.46H84.24z M65.64,17.07
	c-0.51-5.58,3.48-8.28,6.68-8.28s6.34,1.86,6.34,8.28l0.22,25.53c0.07,7.64-6.11,13.86-13.74,13.86h0L65.64,17.07z M104.72,108.89
	c0,6.68-2.52,9.08-8.81,11.31c0,0,0.76-12.17,0.76-19.36c-7.84,27.14-39.63,19.19-39.63,19.19s-1.75-8.84-3.91-21.64
	c-8.88,22.74-30.98,21.64-30.98,21.64c6.84-8.43,17.27-23.64,18.8-44.3h63.76V108.89z M33.2,72.35v-7.95h79.45v7.95H33.2z"/>
<path id="_x32_" class="st0" d="M79.34,89.43c-0.25,0.76-7.35,14.54-5.58,24.43C87.12,107.77,79.34,89.43,79.34,89.43z"/>
<path id="_x31_" class="st0" d="M46.79,88.33c-0.25,0.76-5.33,5.58-8.62,17.25C48.57,101.26,46.79,88.33,46.79,88.33z"/>
</svg>
