<svg id="Gigachad" xmlns="http://www.w3.org/2000/svg" viewBox="0 0 89.95 120.05" fill="currentColor"><g id="Gigachad-2" data-name="Gigachad"><path id="nose" d="M44.27,68.45c-9.64-.22-7.5,6.76-.66,2A1.61,1.61,0,0,0,44.27,68.45Z" transform="translate(-19.05 -4.28)"/><path id="eye" d="M66.8,49.06C58.1,45.44,48,45,44.24,53.69,46.36,55.66,61.93,50,66.8,49.06Zm-17,2.87c0-.61.78-1.74,1-1.2C51.45,51.93,51,51.53,49.8,51.93Zm8.64-2.26c-1.18.42-1.1-.29-1.38-1.25C59,48.57,61.48,48.74,58.44,49.67Z" transform="translate(-19.05 -4.28)"/><path id="face" d="M82.54,105l.08,0c6.42-2.4,15-4.22,14.28-12.34-1.6-12-10.36-53,6.89-40.29a9.67,9.67,0,0,0-8.15,2.89c-1,2,1.2,1,2.11.62,2.48-1.08,2.9.06,2.35,2.05-.47,1.69-1.38,1.21-2.31.59A.77.77,0,0,0,96.6,59c-.38,5.07,1.59,14.88,1.68,5.37.26-.94,0-3,1.42-2.65,1.2.25,1.4,1.28,1.71,2.32s-.25,2-1.22,3a.76.76,0,0,0,1,1.15c4.54-3.14,4.15,4.89-3.44,7.52.15,7.5,2.68,27.3,6.28,38.91.24.79,1.6.52,1.47-.3-1.18-7.49-5.23-26.43-5.07-37,3.94-1.48,9.57-8.6,8.42-16.4-2.3-17.51-1.55-47.5-22.63-50.77C71-2.3,28.8,6.5,28.57,22.36c0,0,0,.08-.06.11C21.55,32.94,25.18,39.09,20,49a8.16,8.16,0,0,0-.51,6.62c2.06,5.52-1.23,11.39.19,16.64,1.6,5.91,5.57,12.36,6.53,18.63,1.85,12-4.44,32.42,7.55,33.4a53.67,53.67,0,0,0,8.2-.44c6.62-.4,9,.59,15.06-.31C66.8,122.07,73.77,109.36,82.54,105ZM29.47,76.82c-3.47,8.4-8.12-2.89-8.08-6.9,0-5.64,1.19-8.54.15-13-1.95-8.41,18.06-3.13,9.59-1.18-.27.06-6.53-.7-7.77,2.07-1.81,5,2.17,3.48,6.58,2.1A.76.76,0,0,1,30.85,61C26.33,70.35,29.53,76.68,29.47,76.82ZM30.6,57c1.17-.29,2,.4,1.9,1.07C31.19,58.7,30.51,58.36,30.6,57Zm-3.17.86c.25,1-.44,1.24-1.43,1.51C26,58.54,26.37,57.6,27.43,57.86ZM60,84.24c-9.26,14.12-43.47,8.5-23-3,.13-.07-.14,0,0,0,5-1.36,22.76-8,23,3C60,84.41,60.13,84.1,60,84.24ZM24.31,43.71c1.69-29,27.75-24.68,50-23.56.16,0-.13-.1,0,0,5,3.88,5.72,12,3.86,17.87a.76.76,0,0,0,.43.94c13.47,5.93,13,22.72,4.43,33.23l-.11.12c-9.53,8.21-14.73-4.83-16.52-3.22-.37.34-.16.86.2,1.2,3.82,3.61,3.16,8.45-1.32,9.47a.77.77,0,0,1-.93-.83c.69-5.07-4.56-8.44-8.89-10.74a.77.77,0,0,0-1.1.9c.9,2.68-5.27,3.76-5.77,1.65s2.87-5.69-1.92-6.55c-1.89-.34-6.48,2.11-3.82,2.68a.85.85,0,0,0,.62-.13c3.67-2.55,5.09.38,2.67,3.73-1.22,1.86-3.42,2-5.21,2.62a.77.77,0,0,0,0,1.45c6,2.39-8.51,10.37-5.69,2.41.86-3-.24-2.44-1-2.39-10.68-2,1.56-16.17,1.19-20.59-1.15-10.71-11-4.67-11.09-10.26ZM107.1,62.1c.47,7.79-7-1.34-5.44-3.08C102.41,58,106.7,55.45,107.1,62.1Z" transform="translate(-19.05 -4.28)"/><path id="mouth" d="M58.25,82.52c-6.44-3.08-19.1,0-24.94,3.63C34.33,95.56,52.34,85.6,58.25,82.52Zm-22.42,4c3.82-1.67,10.8-4.24,18-3.5C51.33,84.83,34.6,92,35.83,86.57Z" transform="translate(-19.05 -4.28)"/><path id="brow" d="M68.37,43c-4.94-12.3-39.14-.68-29.57,4.26C47.1,45.27,59.89,39.48,68.37,43Z" transform="translate(-19.05 -4.28)"/></g></svg>