<svg id="Broom" xmlns="http://www.w3.org/2000/svg" viewBox="0 0 110.83 125.43" fill="currentColor"><path id="broom-2" data-name="broom" d="M113.83,1.44H15.65A6.18,6.18,0,0,0,9.47,7.61s-.3,72-.3,73.86c0,20.73,25.5,32,41.85,41.7a26.43,26.43,0,0,0,26.84.08c16.21-9.46,41.39-20.29,41.82-40.58L120,7.61A6.17,6.17,0,0,0,113.83,1.44Zm-54.56,73-3.11.88c1.48,3.2.36,8.12-2.28,13.41-2.15,4.31-4.68,8.06-6.62,12.57s-.66,6.62-.66,6.62l-6.94-5.39,2.51-7.44-6,4.76L29.4,94.68,32,90.05l-5.76,2.16L20.13,87.4a12.74,12.74,0,0,0,6-2c4.45-2.66,5.95-4.63,11.25-8.6s9.74-6.57,13.23-5.87l0-2.83a2.1,2.1,0,0,1,3.26-1.73l3.9-4.29,4.92,6-2.9,3.11A1.78,1.78,0,0,1,59.27,74.43Zm43.59,17.78-5.77-2.16,2.65,4.63L93,99.84l-6-4.76,2.51,7.44-6.93,5.39s1.32-2-.67-6.62S77.41,93,75.26,88.72C72.61,83.43,71.49,78.51,73,75.31l-3.1-.88a1.78,1.78,0,0,1-.51-3.2L26.27,18.28a3.47,3.47,0,0,1,.53-4.94,3.63,3.63,0,0,1,5,.53L64.57,53.44,97.3,13.87a3.63,3.63,0,0,1,5-.53,3.47,3.47,0,0,1,.52,4.94L69.45,59.34l5.83,7a2.1,2.1,0,0,1,3.26,1.73l0,2.83c3.49-.7,8,2,13.23,5.87s6.8,5.94,11.25,8.6a12.72,12.72,0,0,0,6,2Z" transform="translate(-9.17 -1.44)"/></svg>