<?xml version="1.0" encoding="utf-8"?>
<!-- Generator: Adobe Illustrator 24.1.2, SVG Export Plug-In . SVG Version: 6.00 Build 0)  -->
<svg version="1.1" id="icon_x5F_gpu3_x5F_main" xmlns="http://www.w3.org/2000/svg" xmlns:xlink="http://www.w3.org/1999/xlink"
	 x="0px" y="0px" viewBox="0 0 128 128" style="enable-background:new 0 0 128 128;" xml:space="preserve">
<style type="text/css">
	.st0{fill:#FFFFFF;}
</style>
<path id="icon_x5F_gpu3_x5F_down" class="st0" d="M85.97,36.48c-5.48,0-43.83,0-43.83,0s-5.48,0-5.48,5.47c0,5.47,0,43.78,0,43.78
	s0,5.47,5.48,5.47s43.83,0,43.83,0s5.48,0,5.48-5.47s0-43.78,0-43.78S91.45,36.48,85.97,36.48z"/>
<path id="icon_x5F_gpu3_x5F_up" class="st0" d="M128,34.23v-9.12h-14.21c-0.2-1.22-0.6-2.77-1.41-4.38
	c-1.84-3.68-5.02-5.95-9.05-6.72V0h-9.12v13.65l-7.65,0V0h-9.12v13.66l-7.65,0V0h-9.12v13.66l-7.65,0V0H43.9v13.67l-7.65,0V0h-9.12
	v13.71c-5.02,0.15-11.9,3.32-13.02,11.4H0.17v9.12h13.7l0.01,7.65H0.17V51h13.71l0.01,7.65H0.17v9.13h13.72l0.01,7.64H0.17v9.12
	h13.74l0.01,7.65H0.17v9.12h13.79c0.5,5.81,4.25,12.47,13.17,12.7v13.69h9.12v-13.65l7.65,0v13.65h9.12v-13.66l7.65,0v13.66h9.12
	v-13.67l7.65,0v13.67h9.12v-13.68l7.65,0v13.68h9.12v-14.06c1.09-0.23,2.33-0.59,3.63-1.24c4.27-2.14,6.66-6.09,6.95-11.08H128V92.2
	h-13.97l0-7.65H128v-9.12h-13.98l0-7.64H128v-9.13h-13.99l0-7.65H128v-9.12h-13.99l0-7.65H128z M100.37,104.9l-72.81,0.04
	c-1.13,0-4.08,0-4.53-4.31l-0.05-73.26c0-3.67,2.5-4.51,4.54-4.57l72.81-0.03c0,0,0,0,0,0c3.64,0,4.48,2.49,4.54,4.6l0.03,72.97
	C104.91,104.01,102.42,104.84,100.37,104.9z"/>
</svg>
