<?xml version="1.0" encoding="utf-8"?>
<svg version="1.1" id="icon_x5F_gpu_x5F_main" xmlns="http://www.w3.org/2000/svg" xmlns:xlink="http://www.w3.org/1999/xlink"
	 x="0px" y="0px" viewBox="0 0 128 128" style="enable-background:new 0 0 128 128;" xml:space="preserve">
<path id="icon_x5F_gpu_x5F_down" class="st0" d="M42.72,36.69c0,0-5.36,0-5.36,5.36s0,42.9,0,42.9s0,5.36,5.36,5.36s42.9,0,42.9,0
	s5.36,0,5.36-5.36s0-42.9,0-42.9s0-5.36-5.36-5.36S42.72,36.69,42.72,36.69z"/>
<path id="icon_x5F_gpu_x5F_up" class="st0" d="M104.44,49.2h7.46c1.22,3.88,4.99,5.36,7.68,5.36c3.25,0,8.09-2.15,8.09-8.09
	c0-5.94-4.84-8.09-8.09-8.09c-2.69,0-6.46,1.48-7.68,5.36h-7.46V33.47c0-0.52-0.05-1.08-0.14-1.65h18.01V18.9
	c3.88-1.22,5.36-4.99,5.36-7.69c0-3.25-2.15-8.09-8.09-8.09c-5.94,0-8.09,4.84-8.09,8.09c0,2.69,1.48,6.46,5.36,7.69v7.46h-15.11
	c-1.63-1.81-4.07-3.13-7.54-3.13h-13v-7.52c2.7-0.91,5.36-3.23,5.36-7.63c0-5.94-4.84-8.09-8.09-8.09c-3.25,0-8.09,2.15-8.09,8.09
	c0,4.4,2.66,6.72,5.36,7.63v7.52h-2.63v0l-15.15,0.01v-7.53c2.7-0.91,5.36-3.23,5.36-7.63c0-5.94-4.84-8.09-8.09-8.09
	s-8.09,2.15-8.09,8.09c0,4.4,2.66,6.72,5.36,7.63v7.53l-12.42,0V5.36H27.11C26.21,2.66,23.89,0,19.49,0c-5.94,0-8.09,4.84-8.09,8.09
	s2.15,8.09,8.09,8.09c4.4,0,6.72-2.66,7.63-5.36h7.52v12.44l-0.49,0l0-0.02c0,0-0.21,0-0.56,0.03c-4.46,0.34-9.67,3.22-9.67,10.21
	v2.28h-7.52c-0.91-2.7-3.23-5.36-7.63-5.36c-5.94,0-8.09,4.84-8.09,8.09s2.15,8.09,8.09,8.09c4.4,0,6.72-2.66,7.63-5.36h7.52v12.42
	H6.03V66.6c-2.7,0.91-5.36,3.23-5.36,7.63c0,5.94,4.84,8.09,8.09,8.09s8.09-2.15,8.09-8.09c0-4.4-2.66-6.72-5.36-7.63v-7.52h12.42
	v33.87h-7.52c-0.91-2.7-3.23-5.36-7.63-5.36c-5.94,0-8.09,4.84-8.09,8.09c0,3.25,2.15,8.09,8.09,8.09c4.4,0,6.72-2.66,7.63-5.36h8.7
	c1.39,2.8,4.13,5.22,8.7,5.34v0.02h0.85v7.52c-2.7,0.91-5.36,3.23-5.36,7.63c0,5.94,4.84,8.09,8.09,8.09s8.09-2.15,8.09-8.09
	c0-4.4-2.66-6.72-5.36-7.63v-7.52h12.42v17.88h12.97c0.91,2.7,3.23,5.36,7.63,5.36c5.94,0,8.09-4.84,8.09-8.09
	c0-3.25-2.15-8.09-8.09-8.09c-4.4,0-6.72,2.66-7.63,5.36h-7.52v-12.42h33.87v7.52c-2.7,0.91-5.36,3.23-5.36,7.63
	c0,5.94,4.84,8.09,8.09,8.09c3.25,0,8.09-2.15,8.09-8.09c0-4.4-2.66-6.72-5.36-7.63v-7.99c3.54-1.06,7.15-3.99,7.15-9.76v-0.49
	h12.42v7.46c-3.88,1.22-5.36,4.99-5.36,7.68c0,3.25,2.15,8.09,8.09,8.09c5.94,0,8.09-4.84,8.09-8.09c0-2.69-1.48-6.46-5.36-7.68
	V87.58h-17.87V75.16h7.46c1.22,3.88,4.99,5.36,7.68,5.36c3.25,0,8.09-2.15,8.09-8.09c0-5.94-4.84-8.09-8.09-8.09
	c-2.69,0-6.46,1.48-7.68,5.36h-7.46V49.2z M119.58,43.84c0.79,0,2.63,0.26,2.63,2.63c0,2.1-1.42,2.59-2.63,2.63
	c-1.21-0.04-2.63-0.53-2.63-2.63C116.95,44.35,118.4,43.87,119.58,43.84z M119.58,8.58c2.12,0,2.6,1.45,2.63,2.6
	c-0.03,1.22-0.51,2.67-2.63,2.67c-2.1,0-2.59-1.42-2.63-2.63C116.99,10.01,117.48,8.58,119.58,8.58z M78.47,5.46
	c0.79,0,2.63,0.26,2.63,2.63c0,2.11-1.44,2.6-2.62,2.63c-1.21-0.04-2.65-0.53-2.65-2.63C75.84,5.97,77.29,5.49,78.47,5.46z
	 M55.2,5.46c1.22,0.03,2.67,0.51,2.67,2.63c0,2.11-1.44,2.6-2.66,2.63c-0.8,0-2.61-0.28-2.61-2.63C52.6,5.97,54.05,5.49,55.2,5.46z
	 M19.49,10.72c-2.12,0-2.6-1.45-2.63-2.63c0-0.79,0.26-2.63,2.63-2.63c2.1,0,2.59,1.42,2.63,2.63C22.08,9.3,21.59,10.72,19.49,10.72
	z M8.76,41.11c-2.12,0-2.6-1.45-2.63-2.63c0-0.79,0.26-2.63,2.63-2.63c2.1,0,2.59,1.42,2.63,2.63
	C11.36,39.69,10.86,41.11,8.76,41.11z M8.8,76.86c-1.22-0.03-2.67-0.51-2.67-2.63c0-2.1,1.42-2.59,2.63-2.63
	c1.21,0.04,2.63,0.53,2.63,2.63C11.4,76.34,9.95,76.83,8.8,76.86z M8.76,98.31c-2.12,0-2.6-1.45-2.63-2.63
	c0-0.79,0.26-2.63,2.63-2.63c2.1,0,2.59,1.42,2.63,2.63C11.36,96.88,10.86,98.31,8.76,98.31z M37.39,121.54
	c-1.22-0.03-2.67-0.51-2.67-2.63c0-2.1,1.42-2.59,2.63-2.63c1.21,0.04,2.63,0.53,2.63,2.63C40,121.03,38.55,121.51,37.39,121.54z
	 M73.11,116.27c2.12,0,2.6,1.45,2.63,2.6c-0.03,1.22-0.51,2.67-2.63,2.67c-2.11,0-2.6-1.44-2.64-2.65
	C70.48,118.09,70.75,116.27,73.11,116.27z M119.58,110.82c-2.1,0-2.59-1.42-2.63-2.63c0.04-1.21,0.53-2.63,2.63-2.63
	c2.12,0,2.6,1.45,2.63,2.6C122.19,109.37,121.7,110.82,119.58,110.82z M119.55,69.8c1.22,0.03,2.67,0.51,2.67,2.63
	c0,2.1-1.42,2.59-2.63,2.63c-1.21-0.04-2.63-0.53-2.63-2.63C116.95,70.32,118.4,69.83,119.55,69.8z M94.59,121.54
	c-1.22-0.03-2.67-0.51-2.67-2.63c0-2.1,1.42-2.59,2.64-2.63c1.21,0.04,2.63,0.53,2.63,2.63C97.19,121.03,95.74,121.51,94.59,121.54z
	 M98.98,93.53c0,4.36-3.68,4.76-4.8,4.78H34.14c-4.36,0-4.76-3.68-4.78-4.78V33.47c0-3.61,2.46-4.59,4.55-4.76l17.76-0.01v0.01
	l1.57-0.01l25.17-0.01H94.2c4.36,0,4.76,3.68,4.78,4.78V93.53z"/>
</svg>
