<svg id="Processor" xmlns="http://www.w3.org/2000/svg" viewBox="0 0 125.85 125.85" fill="currentColor"><path id="Processor_in" d="M101.36,59.85,67.67,26.16a5.55,5.55,0,0,0-7.87,0L26.11,59.85a5.56,5.56,0,0,0,0,7.86l33.69,33.7a5.57,5.57,0,0,0,7.87,0l33.69-33.7A5.56,5.56,0,0,0,101.36,59.85ZM64.94,96.25a1.71,1.71,0,0,1-2.41,0L31.27,65a1.71,1.71,0,0,1,0-2.41L61.66,32.19a2.93,2.93,0,0,1,4.15,0L96.2,62.58a1.7,1.7,0,0,1,0,2.41Z" transform="translate(-0.81 -0.86)"/><path id="Processor_out" d="M56.74,4.28,4.24,56.78a11.7,11.7,0,0,0,0,16.55l49.95,50a11.7,11.7,0,0,0,16.55,0l52.5-52.5a11.69,11.69,0,0,0,0-16.54l-50-50A11.69,11.69,0,0,0,56.74,4.28Zm27.67,95a4.22,4.22,0,0,1-5.14.64L78,99.14a2.9,2.9,0,0,0-3.54.44l-6.3,6.3a6.22,6.22,0,0,1-8.8,0l-37.7-37.7a6.22,6.22,0,0,1,0-8.8l6.3-6.3a2.9,2.9,0,0,0,.44-3.54l-.77-1.29a4.21,4.21,0,0,1,.64-5.14L43.08,28.28a4.21,4.21,0,0,1,5.11-.66l1.35.79A2.9,2.9,0,0,0,53.06,28l6.28-6.28a6.22,6.22,0,0,1,8.8,0l37.7,37.7a6.22,6.22,0,0,1,0,8.8l-6.33,6.33a2.92,2.92,0,0,0-.43,3.56l.75,1.24a4.2,4.2,0,0,1-.62,5.16Z" transform="translate(-0.81 -0.86)"/></svg>