<?xml version="1.0" encoding="utf-8"?>
<svg version="1.1" id="icon_cat" xmlns="http://www.w3.org/2000/svg" 
     xmlns:xlink="http://www.w3.org/1999/xlink" x="0 0 128 128" 
     viewBox="0 0 128 128" xml:space="preserve">
  <path d="M114.54,88.82c5.35-2.75,9.96-6.72,13.46-11.53c-4.67-3.14-9.86-5.56-15.4-7.09
    c0.01-24.5-6.29-48.6-18.25-69.73c-7.96,8.45-14.3,18.49-18.62,29.31c-7.66-1.22-15.65-1.06-23.27,0.31
    C48.13,19.15,41.74,9.02,33.71,0.47C21.76,21.62,15.45,45.7,15.46,70.2c-5.54,1.53-10.73,3.95-15.4,7.09
    c3.49,4.82,8.1,8.78,13.46,11.53c-3.64,2.85-6.74,6.37-9.14,10.33c5.87,4.32,12.67,7.48,20.05,9.09c19.68,25.4,59.51,25.41,79.2,0
    c7.38-1.61,14.18-4.78,20.05-9.09C121.28,95.19,118.18,91.68,114.54,88.82z M23.7,68.22c0,0,4.13-2.07,12.4-2.07
    c8.27,0,19.64,11.37,19.64,11.37s-8.27,6.2-19.64,9.3C32.11,87.91,26.8,77.52,23.7,68.22z M64,98.19c-5.71,0-10.33-4.13-10.33-12.4
    c1.04-0.35,2.16-0.62,3.3-0.85l3,6.02l1.21-6.61c1.9-0.14,3.84-0.14,5.75,0.01l1.22,6.65l3.01-6.05c1.1,0.23,2.17,0.49,3.18,0.82
    C74.33,94.05,69.71,98.19,64,98.19z M92.99,86.03c-11.37-3.1-19.63-9.3-19.63-9.3s11.37-11.37,19.63-11.37s12.4,2.07,12.4,2.07
    C102.29,76.73,96.98,87.12,92.99,86.03z" 
    fill="#3B82F6"/>
</svg>
